<svg id="Layer_1" data-name="Layer 1" xmlns="http://www.w3.org/2000/svg" viewBox="0 0 32 32"><defs><style>.cls-1{fill:#a5dad4;}.cls-2{fill:#8ad1c7;}.cls-2,.cls-3{fill-rule:evenodd;}.cls-3{fill:#053c48;}</style></defs><rect class="cls-1" x="3.65" y="1.81" width="24.34" height="21.45" rx="0.96"/><path class="cls-2" d="M18.05,6.84C11.85,11.3,7.89,17.42,6.8,23.26H27a1,1,0,0,0,1-1V2.77a1,1,0,0,0-.25-.64A30.78,30.78,0,0,0,18.05,6.84Z"/><path class="cls-3" d="M10.31,17.09a.94.94,0,0,0-.94.95v1.89a.95.95,0,1,0,1.89,0V18A.94.94,0,0,0,10.31,17.09Z"/><path class="cls-3" d="M16,15.06a1,1,0,0,0-.95.94v3.93a.95.95,0,0,0,1.9,0V16A.94.94,0,0,0,16,15.06Z"/><path class="cls-3" d="M30.92.83H1.09a1,1,0,0,0,0,1.9H2.73v18a3.62,3.62,0,0,0,3.79,3.79h5.69L8.42,31.17h2.85l3.78-6.63H17l3.78,6.63h2.86l-3.8-6.64h5.69a3.61,3.61,0,0,0,3.79-3.79v-18h1.67A1,1,0,0,0,30.92.83ZM27.38,20.74a1.77,1.77,0,0,1-1.9,1.9h-19a1.77,1.77,0,0,1-1.89-1.9V14.29l5-3.69L13,14.14a.94.94,0,0,0,1.29.08l8.47-6.33.75,1a.56.56,0,0,0,1-.13l1.77-4.29a.56.56,0,0,0-.59-.77l-4.59.61a.56.56,0,0,0-.38.9L21.6,6.4l-7.8,5.83L10.48,8.71a.94.94,0,0,0-1.26-.13L4.62,12c0-4.26,0-8.6,0-9.22H27.39C27.39,4.68,27.38,20.74,27.38,20.74Z"/><path class="cls-3" d="M21.69,11a1,1,0,0,0-1,1v8a.95.95,0,0,0,1.9,0V12A1,1,0,0,0,21.69,11Z"/></svg>